{
    "accessors" : [
        {
            "bufferView" : 0,
            "componentType" : 5123,
            "count" : 24798,
            "max" : [
                6053
            ],
            "min" : [
                0
            ],
            "type" : "SCALAR"
        },
        {
            "bufferView" : 1,
            "componentType" : 5126,
            "count" : 6054,
            "max" : [
                699.6456298828125,
                287.8106689453125,
                175.595947265625
            ],
            "min" : [
                -520.7662353515625,
                -389.2899169921875,
                -162.835205078125
            ],
            "type" : "VEC3"
        },
        {
            "bufferView" : 2,
            "componentType" : 5126,
            "count" : 6054,
            "max" : [
                0.99993896484375,
                0.99981689453125,
                0.999664306640625
            ],
            "min" : [
                -0.9989623427391052,
                -0.9991455078125,
                -0.999908447265625
            ],
            "type" : "VEC3"
        },
        {
            "bufferView" : 3,
            "componentType" : 5126,
            "count" : 6054,
            "max" : [
                0.9998199939727783,
                0.9883467555046082,
                0.9999730587005615,
                1.0
            ],
            "min" : [
                -0.9991565346717834,
                -0.9928532242774963,
                -0.9999547004699707,
                -1.0
            ],
            "type" : "VEC4"
        },
        {
            "bufferView" : 4,
            "componentType" : 5126,
            "count" : 6054,
            "max" : [
                0.9364782571792603,
                0.9332744851708412
            ],
            "min" : [
                0.06348197162151337,
                0.10099512338638306
            ],
            "type" : "VEC2"
        },
        {
            "bufferView" : 5,
            "componentType" : 5123,
            "count" : 6054,
            "max" : [
                2,
                2,
                2,
                0
            ],
            "min" : [
                0,
                0,
                0,
                0
            ],
            "type" : "VEC4"
        },
        {
            "bufferView" : 6,
            "componentType" : 5126,
            "count" : 6054,
            "max" : [
                1.0,
                1.0,
                1.0,
                0.0
            ],
            "min" : [
                1.0,
                0.0,
                0.0,
                0.0
            ],
            "type" : "VEC4"
        },
        {
            "bufferView" : 7,
            "componentType" : 5126,
            "count" : 3,
            "max" : [
                0.0010898914188146591,
                -0.002584110014140606,
                0.0001383202034048736,
                0.0,
                0.0027296405751258135,
                0.001415712758898735,
                0.0001683388400124386,
                0.0,
                0.0028144512325525284,
                6.587278767256066e-05,
                0.0029384458903223276,
                0.0,
                -0.005557869095355272,
                0.8594390153884888,
                0.04202742129564285,
                1.0
            ],
            "min" : [
                0.0001309782383032143,
                -0.002846691058948636,
                -0.0011379270581528544,
                0.0,
                0.0008623488247394562,
                0.0007540392689406872,
                -0.002714721718803048,
                0.0,
                -0.0002076796517940238,
                -9.855881944531575e-05,
                0.0008666524663567543,
                0.0,
                -0.13339391350746155,
                -1.012548565864563,
                0.008786868304014206,
                1.0
            ],
            "type" : "MAT4"
        },
        {
            "bufferView" : 8,
            "componentType" : 5126,
            "count" : 183,
            "max" : [
                8.291666666666668
            ],
            "min" : [
                0.7083333333333334
            ],
            "type" : "SCALAR"
        },
        {
            "bufferView" : 9,
            "componentType" : 5126,
            "count" : 183,
            "max" : [
                -0.10549383610486984,
                0.01522523071616888,
                -0.04283060505986214
            ],
            "min" : [
                -0.10549383610486984,
                0.01522523071616888,
                -0.04283060505986214
            ],
            "type" : "VEC3"
        },
        {
            "bufferView" : 10,
            "componentType" : 5126,
            "count" : 200,
            "max" : [
                8.291666666666668
            ],
            "min" : [
                0.0
            ],
            "type" : "SCALAR"
        },
        {
            "bufferView" : 11,
            "componentType" : 5126,
            "count" : 200,
            "max" : [
                0.17005756497383118,
                0.1324351727962494,
                0.12420070916414261,
                0.9951756000518799
            ],
            "min" : [
                0.03162211552262306,
                0.003922952339053154,
                -0.07490327954292297,
                0.9758540391921997
            ],
            "type" : "VEC4"
        },
        {
            "bufferView" : 12,
            "componentType" : 5126,
            "count" : 183,
            "max" : [
                8.291666666666668
            ],
            "min" : [
                0.7083333333333334
            ],
            "type" : "SCALAR"
        },
        {
            "bufferView" : 13,
            "componentType" : 5126,
            "count" : 183,
            "max" : [
                1.1859810911118984e-09,
                0.864773154258728,
                9.589712135493755e-09
            ],
            "min" : [
                1.1859810911118984e-09,
                0.864773154258728,
                9.589712135493755e-09
            ],
            "type" : "VEC3"
        },
        {
            "bufferView" : 14,
            "componentType" : 5126,
            "count" : 200,
            "max" : [
                8.291666666666668
            ],
            "min" : [
                0.0
            ],
            "type" : "SCALAR"
        },
        {
            "bufferView" : 15,
            "componentType" : 5126,
            "count" : 200,
            "max" : [
                0.0804218202829361,
                0.5210650563240051,
                0.18998582661151886,
                0.9032793045043945
            ],
            "min" : [
                0.015990201383829117,
                0.42192304134368896,
                0.043600790202617645,
                0.8458048105239868
            ],
            "type" : "VEC4"
        }
    ],
    "animations" : [
        {
            "channels" : [
                {
                    "sampler" : 0,
                    "target" : {
                        "node" : 2,
                        "path" : "translation"
                    }
                },
                {
                    "sampler" : 1,
                    "target" : {
                        "node" : 2,
                        "path" : "rotation"
                    }
                },
                {
                    "sampler" : 2,
                    "target" : {
                        "node" : 3,
                        "path" : "translation"
                    }
                },
                {
                    "sampler" : 3,
                    "target" : {
                        "node" : 3,
                        "path" : "rotation"
                    }
                }
            ],
            "name" : "ArmatureAction",
            "samplers" : [
                {
                    "input" : 8,
                    "interpolation" : "LINEAR",
                    "output" : 9
                },
                {
                    "input" : 10,
                    "interpolation" : "LINEAR",
                    "output" : 11
                },
                {
                    "input" : 12,
                    "interpolation" : "LINEAR",
                    "output" : 13
                },
                {
                    "input" : 14,
                    "interpolation" : "LINEAR",
                    "output" : 15
                }
            ]
        }
    ],
    "asset" : {
        "generator" : "Khronos Blender glTF 2.0 exporter",
        "version" : "2.0"
    },
    "bufferViews" : [
        {
            "buffer" : 0,
            "byteLength" : 49596,
            "byteOffset" : 0,
            "target" : 34963
        },
        {
            "buffer" : 0,
            "byteLength" : 72648,
            "byteOffset" : 49596,
            "target" : 34962
        },
        {
            "buffer" : 0,
            "byteLength" : 72648,
            "byteOffset" : 122244,
            "target" : 34962
        },
        {
            "buffer" : 0,
            "byteLength" : 96864,
            "byteOffset" : 194892,
            "target" : 34962
        },
        {
            "buffer" : 0,
            "byteLength" : 48432,
            "byteOffset" : 291756,
            "target" : 34962
        },
        {
            "buffer" : 0,
            "byteLength" : 48432,
            "byteOffset" : 340188,
            "target" : 34962
        },
        {
            "buffer" : 0,
            "byteLength" : 96864,
            "byteOffset" : 388620,
            "target" : 34962
        },
        {
            "buffer" : 0,
            "byteLength" : 192,
            "byteOffset" : 485484
        },
        {
            "buffer" : 0,
            "byteLength" : 732,
            "byteOffset" : 485676
        },
        {
            "buffer" : 0,
            "byteLength" : 2196,
            "byteOffset" : 486408
        },
        {
            "buffer" : 0,
            "byteLength" : 800,
            "byteOffset" : 488604
        },
        {
            "buffer" : 0,
            "byteLength" : 3200,
            "byteOffset" : 489404
        },
        {
            "buffer" : 0,
            "byteLength" : 732,
            "byteOffset" : 492604
        },
        {
            "buffer" : 0,
            "byteLength" : 2196,
            "byteOffset" : 493336
        },
        {
            "buffer" : 0,
            "byteLength" : 800,
            "byteOffset" : 495532
        },
        {
            "buffer" : 0,
            "byteLength" : 3200,
            "byteOffset" : 496332
        }
    ],
    "buffers" : [
        {
            "byteLength" : 499532,
            "uri" : "cow.bin"
        }
    ],
    "images" : [
        {
            "name" : "1.jpg",
            "uri" : "1.jpg.jpg"
        }
    ],
    "materials" : [
        {
            "name" : "COWSKIN.003",
            "pbrMetallicRoughness" : {
                "baseColorTexture" : {
                    "index" : 0
                },
                "metallicFactor" : 0.0,
                "roughnessFactor" : 0.0
            }
        }
    ],
    "meshes" : [
        {
            "name" : "COWBODY.003",
            "primitives" : [
                {
                    "attributes" : {
                        "JOINTS_0" : 5,
                        "NORMAL" : 2,
                        "POSITION" : 1,
                        "TANGENT" : 3,
                        "TEXCOORD_0" : 4,
                        "WEIGHTS_0" : 6
                    },
                    "indices" : 0,
                    "material" : 0
                }
            ]
        }
    ],
    "nodes" : [
        {
            "children" : [
                1,
                2,
                4
            ],
            "name" : "Armature",
            "rotation" : [
                0.41573694348335266,
                0.7645193338394165,
                -0.22822828590869904,
                0.4365602731704712
            ],
            "scale" : [
                0.8078271746635437,
                0.8078270554542542,
                0.8078271150588989
            ],
            "translation" : [
                -3.4249777793884277,
                1.0193437337875366,
                4.433333873748779
            ]
        },
        {
            "mesh" : 0,
            "name" : "COWBODY",
            "rotation" : [
                -0.244404599070549,
                0.38011103868484497,
                -0.4559159576892853,
                0.7667611837387085
            ],
            "scale" : [
                0.0029465132392942905,
                0.0029465125408023596,
                0.0029465125408023596
            ],
            "skin" : 0,
            "translation" : [
                -0.10949993133544922,
                -0.14103150367736816,
                -0.029495716094970703
            ]
        },
        {
            "children" : [
                3
            ],
            "name" : "Armature_Neck",
            "rotation" : [
                0.04966294765472412,
                0.1324351727962494,
                0.11349644511938095,
                0.9834191203117371
            ],
            "scale" : [
                0.9999999403953552,
                1.0,
                1.0
            ],
            "translation" : [
                -0.10549383610486984,
                0.01522523071616888,
                -0.04283060505986214
            ]
        },
        {
            "name" : "Armature_Head",
            "rotation" : [
                0.06630543619394302,
                0.4219960868358612,
                0.043600790202617645,
                0.9031178951263428
            ],
            "scale" : [
                1.0,
                0.9999998807907104,
                0.9999999403953552
            ],
            "translation" : [
                1.1859810911118984e-09,
                0.864773154258728,
                9.589712135493755e-09
            ]
        },
        {
            "name" : "Armature_All",
            "rotation" : [
                0.08639440685510635,
                -0.16566944122314453,
                0.07773961871862411,
                0.9793090224266052
            ],
            "scale" : [
                0.9999999403953552,
                0.9999999403953552,
                0.9999999403953552
            ],
            "translation" : [
                0.08063238114118576,
                -0.966196596622467,
                -0.18405786156654358
            ]
        }
    ],
    "samplers" : [
        {}
    ],
    "scene" : 0,
    "scenes" : [
        {
            "name" : "Scene",
            "nodes" : [
                0
            ]
        }
    ],
    "skins" : [
        {
            "inverseBindMatrices" : 7,
            "joints" : [
                2,
                3,
                4
            ],
            "skeleton" : 0
        }
    ],
    "textures" : [
        {
            "sampler" : 0,
            "source" : 0
        }
    ]
}
