{
    "accessors" : [
        {
            "bufferView" : 0,
            "componentType" : 5123,
            "count" : 24864,
            "max" : [
                4190
            ],
            "min" : [
                0
            ],
            "type" : "SCALAR"
        },
        {
            "bufferView" : 1,
            "componentType" : 5126,
            "count" : 4191,
            "max" : [
                610.2059326171875,
                685.5198364257812,
                169.21556091308594
            ],
            "min" : [
                -610.2059326171875,
                8.4193115234375,
                -169.215576171875
            ],
            "type" : "VEC3"
        },
        {
            "bufferView" : 2,
            "componentType" : 5126,
            "count" : 4191,
            "max" : [
                0.99993896484375,
                0.99981689453125,
                0.999664306640625
            ],
            "min" : [
                -0.9989623427391052,
                -0.9991455078125,
                -0.999908447265625
            ],
            "type" : "VEC3"
        },
        {
            "bufferView" : 3,
            "componentType" : 5126,
            "count" : 4191,
            "max" : [
                1.0,
                1.0
            ],
            "min" : [
                0.0,
                0.0
            ],
            "type" : "VEC2"
        },
        {
            "bufferView" : 4,
            "componentType" : 5123,
            "count" : 4191,
            "max" : [
                2,
                2,
                0,
                0
            ],
            "min" : [
                0,
                0,
                0,
                0
            ],
            "type" : "VEC4"
        },
        {
            "bufferView" : 5,
            "componentType" : 5126,
            "count" : 4191,
            "max" : [
                1.0,
                1.0,
                0.0,
                0.0
            ],
            "min" : [
                1.0,
                0.0,
                0.0,
                0.0
            ],
            "type" : "VEC4"
        },
        {
            "bufferView" : 6,
            "componentType" : 5126,
            "count" : 3,
            "max" : [
                0.0003822179860435426,
                -0.006571838166564703,
                1.9697181414812803e-05,
                0.0,
                0.006691053044050932,
                0.002041973639279604,
                -0.0017064646817743778,
                0.0,
                0.006826329044997692,
                0.0006778775132261217,
                0.006701180245727301,
                0.0,
                0.5988088250160217,
                0.5682973861694336,
                3.3222134113311768,
                1.0
            ],
            "min" : [
                -0.0003755553043447435,
                -0.00690483907237649,
                -0.0021173295099288225,
                0.0,
                -0.0010360304731875658,
                -0.0003687966091092676,
                -0.006540279369801283,
                0.0,
                0.001704989350400865,
                -7.36193687771447e-05,
                -0.0008717405144125223,
                0.0,
                -3.667057752609253,
                -1.8892360925674438,
                0.8458406329154968,
                1.0
            ],
            "type" : "MAT4"
        },
        {
            "bufferView" : 7,
            "componentType" : 5126,
            "count" : 83,
            "max" : [
                7.541666666666666
            ],
            "min" : [
                4.125
            ],
            "type" : "SCALAR"
        },
        {
            "bufferView" : 8,
            "componentType" : 5126,
            "count" : 83,
            "max" : [
                0.9624632596969604,
                -0.1361045241355896,
                -1.9906895160675049
            ],
            "min" : [
                0.9624632596969604,
                -0.1361045241355896,
                -1.9906895160675049
            ],
            "type" : "VEC3"
        },
        {
            "bufferView" : 9,
            "componentType" : 5126,
            "count" : 200,
            "max" : [
                8.291666666666668
            ],
            "min" : [
                0.0
            ],
            "type" : "SCALAR"
        },
        {
            "bufferView" : 10,
            "componentType" : 5126,
            "count" : 200,
            "max" : [
                0.1448453813791275,
                0.12437456101179123,
                0.2718368172645569,
                0.9998851418495178
            ],
            "min" : [
                -0.07044421881437302,
                -0.08771257102489471,
                -0.02263781428337097,
                0.956561803817749
            ],
            "type" : "VEC4"
        },
        {
            "bufferView" : 11,
            "componentType" : 5126,
            "count" : 71,
            "max" : [
                7.625
            ],
            "min" : [
                4.708333333333333
            ],
            "type" : "SCALAR"
        },
        {
            "bufferView" : 12,
            "componentType" : 5126,
            "count" : 71,
            "max" : [
                8.521601557731628e-08,
                0.8647732138633728,
                1.0873191058635712e-07
            ],
            "min" : [
                8.521601557731628e-08,
                0.8647732138633728,
                1.0873191058635712e-07
            ],
            "type" : "VEC3"
        },
        {
            "bufferView" : 13,
            "componentType" : 5126,
            "count" : 200,
            "max" : [
                8.291666666666668
            ],
            "min" : [
                0.0
            ],
            "type" : "SCALAR"
        },
        {
            "bufferView" : 14,
            "componentType" : 5126,
            "count" : 200,
            "max" : [
                0.11175508797168732,
                0.5949015617370605,
                0.16643591225147247,
                0.9456594586372375
            ],
            "min" : [
                -0.02097911760210991,
                0.3086496591567993,
                -0.015133826993405819,
                0.7973442673683167
            ],
            "type" : "VEC4"
        }
    ],
    "animations" : [
        {
            "channels" : [
                {
                    "sampler" : 0,
                    "target" : {
                        "node" : 2,
                        "path" : "translation"
                    }
                },
                {
                    "sampler" : 1,
                    "target" : {
                        "node" : 2,
                        "path" : "rotation"
                    }
                },
                {
                    "sampler" : 2,
                    "target" : {
                        "node" : 3,
                        "path" : "translation"
                    }
                },
                {
                    "sampler" : 3,
                    "target" : {
                        "node" : 3,
                        "path" : "rotation"
                    }
                }
            ],
            "name" : "ArmatureAction.001",
            "samplers" : [
                {
                    "input" : 7,
                    "interpolation" : "LINEAR",
                    "output" : 8
                },
                {
                    "input" : 9,
                    "interpolation" : "LINEAR",
                    "output" : 10
                },
                {
                    "input" : 11,
                    "interpolation" : "LINEAR",
                    "output" : 12
                },
                {
                    "input" : 13,
                    "interpolation" : "LINEAR",
                    "output" : 14
                }
            ]
        }
    ],
    "asset" : {
        "generator" : "Khronos Blender glTF 2.0 exporter",
        "version" : "2.0"
    },
    "bufferViews" : [
        {
            "buffer" : 0,
            "byteLength" : 49728,
            "byteOffset" : 0,
            "target" : 34963
        },
        {
            "buffer" : 0,
            "byteLength" : 50292,
            "byteOffset" : 49728,
            "target" : 34962
        },
        {
            "buffer" : 0,
            "byteLength" : 50292,
            "byteOffset" : 100020,
            "target" : 34962
        },
        {
            "buffer" : 0,
            "byteLength" : 33528,
            "byteOffset" : 150312,
            "target" : 34962
        },
        {
            "buffer" : 0,
            "byteLength" : 33528,
            "byteOffset" : 183840,
            "target" : 34962
        },
        {
            "buffer" : 0,
            "byteLength" : 67056,
            "byteOffset" : 217368,
            "target" : 34962
        },
        {
            "buffer" : 0,
            "byteLength" : 192,
            "byteOffset" : 284424
        },
        {
            "buffer" : 0,
            "byteLength" : 332,
            "byteOffset" : 284616
        },
        {
            "buffer" : 0,
            "byteLength" : 996,
            "byteOffset" : 284948
        },
        {
            "buffer" : 0,
            "byteLength" : 800,
            "byteOffset" : 285944
        },
        {
            "buffer" : 0,
            "byteLength" : 3200,
            "byteOffset" : 286744
        },
        {
            "buffer" : 0,
            "byteLength" : 284,
            "byteOffset" : 289944
        },
        {
            "buffer" : 0,
            "byteLength" : 852,
            "byteOffset" : 290228
        },
        {
            "buffer" : 0,
            "byteLength" : 800,
            "byteOffset" : 291080
        },
        {
            "buffer" : 0,
            "byteLength" : 3200,
            "byteOffset" : 291880
        }
    ],
    "buffers" : [
        {
            "byteLength" : 295080,
            "uri" : "cow1.bin"
        }
    ],
    "images" : [
        {
            "name" : "browncowhd",
            "uri" : "browncowhd.jpg"
        }
    ],
    "materials" : [
        {
            "name" : "COWSKIN",
            "pbrMetallicRoughness" : {
                "baseColorTexture" : {
                    "index" : 0
                },
                "metallicFactor" : 0.0,
                "roughnessFactor" : 0.0
            }
        }
    ],
    "meshes" : [
        {
            "name" : "COWBODY",
            "primitives" : [
                {
                    "attributes" : {
                        "JOINTS_0" : 4,
                        "NORMAL" : 2,
                        "POSITION" : 1,
                        "TEXCOORD_0" : 3,
                        "WEIGHTS_0" : 5
                    },
                    "indices" : 0,
                    "material" : 0
                }
            ]
        }
    ],
    "nodes" : [
        {
            "children" : [
                1,
                2,
                4
            ],
            "name" : "Armature.001",
            "rotation" : [
                0.49846160411834717,
                0.6717508435249329,
                -0.4324427843093872,
                0.3365711569786072
            ],
            "scale" : [
                0.3835304379463196,
                0.3835304379463196,
                0.3835303783416748
            ],
            "translation" : [
                -3.2022078037261963,
                0.3372792601585388,
                3.024986982345581
            ]
        },
        {
            "mesh" : 0,
            "name" : "COWBODY.001",
            "rotation" : [
                -0.4484168291091919,
                0.3762962222099304,
                -0.5281087160110474,
                0.6151623725891113
            ],
            "scale" : [
                0.006915073376148939,
                0.006915071979165077,
                0.006915071979165077
            ],
            "skin" : 0,
            "translation" : [
                -0.012604236602783203,
                -1.4973077774047852,
                1.4245305061340332
            ]
        },
        {
            "children" : [
                3
            ],
            "name" : "Armature.001_Neck",
            "rotation" : [
                0.009230244904756546,
                -0.004991432651877403,
                -0.010937157087028027,
                0.9998851418495178
            ],
            "translation" : [
                0.9624632596969604,
                -0.1361045241355896,
                -1.9906895160675049
            ]
        },
        {
            "name" : "Armature.001_Head",
            "rotation" : [
                0.05329929664731026,
                0.4530751407146454,
                0.11484339088201523,
                0.8824359178543091
            ],
            "scale" : [
                1.0,
                0.9999999403953552,
                1.0
            ],
            "translation" : [
                8.521601557731628e-08,
                0.8647732138633728,
                1.0873191058635712e-07
            ]
        },
        {
            "name" : "Armature.001_All",
            "rotation" : [
                -0.13108816742897034,
                -0.23765218257904053,
                0.015272495336830616,
                0.9623430371284485
            ],
            "scale" : [
                0.9999999403953552,
                0.9999999403953552,
                1.0
            ],
            "translation" : [
                0.8467252254486084,
                -2.8489699363708496,
                -1.3031206130981445
            ]
        }
    ],
    "samplers" : [
        {}
    ],
    "scene" : 0,
    "scenes" : [
        {
            "name" : "Scene",
            "nodes" : [
                0
            ]
        }
    ],
    "skins" : [
        {
            "inverseBindMatrices" : 6,
            "joints" : [
                2,
                3,
                4
            ],
            "skeleton" : 0
        }
    ],
    "textures" : [
        {
            "sampler" : 0,
            "source" : 0
        }
    ]
}
