{
    "accessors" : [
        {
            "bufferView" : 0,
            "componentType" : 5123,
            "count" : 24864,
            "max" : [
                4190
            ],
            "min" : [
                0
            ],
            "type" : "SCALAR"
        },
        {
            "bufferView" : 1,
            "componentType" : 5126,
            "count" : 4191,
            "max" : [
                610.2059326171875,
                685.5198364257812,
                169.21556091308594
            ],
            "min" : [
                -610.2059326171875,
                8.4193115234375,
                -169.215576171875
            ],
            "type" : "VEC3"
        },
        {
            "bufferView" : 2,
            "componentType" : 5126,
            "count" : 4191,
            "max" : [
                0.99993896484375,
                0.99981689453125,
                0.999664306640625
            ],
            "min" : [
                -0.9989623427391052,
                -0.9991455078125,
                -0.999908447265625
            ],
            "type" : "VEC3"
        },
        {
            "bufferView" : 3,
            "componentType" : 5126,
            "count" : 4191,
            "max" : [
                1.0,
                1.0
            ],
            "min" : [
                0.0,
                0.0
            ],
            "type" : "VEC2"
        },
        {
            "bufferView" : 4,
            "componentType" : 5123,
            "count" : 4191,
            "max" : [
                2,
                2,
                0,
                0
            ],
            "min" : [
                0,
                0,
                0,
                0
            ],
            "type" : "VEC4"
        },
        {
            "bufferView" : 5,
            "componentType" : 5126,
            "count" : 4191,
            "max" : [
                1.0,
                1.0,
                0.0,
                0.0
            ],
            "min" : [
                1.0,
                0.0,
                0.0,
                0.0
            ],
            "type" : "VEC4"
        },
        {
            "bufferView" : 6,
            "componentType" : 5126,
            "count" : 3,
            "max" : [
                0.0002616113342810422,
                -0.0068876128643751144,
                1.9697032257681713e-05,
                0.0,
                0.006691053044050932,
                0.0005361836520023644,
                -0.001706465263850987,
                0.0,
                0.006550198886543512,
                0.00012593221617862582,
                0.006701180711388588,
                0.0,
                -1.1457513570785522,
                0.6137403249740601,
                3.3222146034240723,
                1.0
            ],
            "min" : [
                -0.00037555547896772623,
                -0.006904840003699064,
                -0.0006144836661405861,
                0.0,
                0.00220106216147542,
                -0.0003687965217977762,
                -0.00654027983546257,
                0.0,
                0.0017049895832315087,
                -0.0003025584446731955,
                0.0022129747085273266,
                0.0,
                -3.667058229446411,
                -1.8892332315444946,
                0.8458413481712341,
                1.0
            ],
            "type" : "MAT4"
        },
        {
            "bufferView" : 7,
            "componentType" : 5126,
            "count" : 200,
            "max" : [
                8.291666666666668
            ],
            "min" : [
                0.0
            ],
            "type" : "SCALAR"
        },
        {
            "bufferView" : 8,
            "componentType" : 5126,
            "count" : 200,
            "max" : [
                0.09902367740869522,
                0.0789390280842781,
                0.1294269561767578,
                0.9999200105667114
            ],
            "min" : [
                0.009231049567461014,
                -0.058541227132081985,
                -0.011106204241514206,
                0.989805281162262
            ],
            "type" : "VEC4"
        },
        {
            "bufferView" : 9,
            "componentType" : 5126,
            "count" : 200,
            "max" : [
                8.291666666666668
            ],
            "min" : [
                0.0
            ],
            "type" : "SCALAR"
        },
        {
            "bufferView" : 10,
            "componentType" : 5126,
            "count" : 200,
            "max" : [
                0.05316732078790665,
                0.4658707082271576,
                0.16643591225147247,
                0.90345299243927
            ],
            "min" : [
                -0.019920572638511658,
                0.4040534496307373,
                -0.015133826993405819,
                0.8823189735412598
            ],
            "type" : "VEC4"
        }
    ],
    "animations" : [
        {
            "channels" : [
                {
                    "sampler" : 0,
                    "target" : {
                        "node" : 2,
                        "path" : "rotation"
                    }
                },
                {
                    "sampler" : 1,
                    "target" : {
                        "node" : 3,
                        "path" : "rotation"
                    }
                }
            ],
            "name" : "ArmatureAction.003",
            "samplers" : [
                {
                    "input" : 7,
                    "interpolation" : "LINEAR",
                    "output" : 8
                },
                {
                    "input" : 9,
                    "interpolation" : "LINEAR",
                    "output" : 10
                }
            ]
        }
    ],
    "asset" : {
        "generator" : "Khronos Blender glTF 2.0 exporter",
        "version" : "2.0"
    },
    "bufferViews" : [
        {
            "buffer" : 0,
            "byteLength" : 49728,
            "byteOffset" : 0,
            "target" : 34963
        },
        {
            "buffer" : 0,
            "byteLength" : 50292,
            "byteOffset" : 49728,
            "target" : 34962
        },
        {
            "buffer" : 0,
            "byteLength" : 50292,
            "byteOffset" : 100020,
            "target" : 34962
        },
        {
            "buffer" : 0,
            "byteLength" : 33528,
            "byteOffset" : 150312,
            "target" : 34962
        },
        {
            "buffer" : 0,
            "byteLength" : 33528,
            "byteOffset" : 183840,
            "target" : 34962
        },
        {
            "buffer" : 0,
            "byteLength" : 67056,
            "byteOffset" : 217368,
            "target" : 34962
        },
        {
            "buffer" : 0,
            "byteLength" : 192,
            "byteOffset" : 284424
        },
        {
            "buffer" : 0,
            "byteLength" : 800,
            "byteOffset" : 284616
        },
        {
            "buffer" : 0,
            "byteLength" : 3200,
            "byteOffset" : 285416
        },
        {
            "buffer" : 0,
            "byteLength" : 800,
            "byteOffset" : 288616
        },
        {
            "buffer" : 0,
            "byteLength" : 3200,
            "byteOffset" : 289416
        }
    ],
    "buffers" : [
        {
            "byteLength" : 292616,
            "uri" : "cow2.bin"
        }
    ],
    "images" : [
        {
            "name" : "browncowhd",
            "uri" : "browncowhd.jpg"
        }
    ],
    "materials" : [
        {
            "name" : "COWSKIN",
            "pbrMetallicRoughness" : {
                "baseColorTexture" : {
                    "index" : 0
                },
                "metallicFactor" : 0.0,
                "roughnessFactor" : 0.0
            }
        }
    ],
    "meshes" : [
        {
            "name" : "COWBODY.001",
            "primitives" : [
                {
                    "attributes" : {
                        "JOINTS_0" : 4,
                        "NORMAL" : 2,
                        "POSITION" : 1,
                        "TEXCOORD_0" : 3,
                        "WEIGHTS_0" : 5
                    },
                    "indices" : 0,
                    "material" : 0
                }
            ]
        }
    ],
    "nodes" : [
        {
            "children" : [
                1,
                2,
                4
            ],
            "name" : "Armature.003",
            "rotation" : [
                0.5369080305099487,
                0.6407043933868408,
                -0.4131298363208771,
                0.361318975687027
            ],
            "scale" : [
                0.28421756625175476,
                0.28421759605407715,
                0.28421759605407715
            ],
            "translation" : [
                -3.0518085956573486,
                0.4815669357776642,
                1.3297430276870728
            ]
        },
        {
            "mesh" : 0,
            "name" : "COWBODY.002",
            "rotation" : [
                -0.4484168589115143,
                0.3762962520122528,
                -0.5281087756156921,
                0.6151623129844666
            ],
            "scale" : [
                0.006915073376148939,
                0.006915071979165077,
                0.006915071979165077
            ],
            "skin" : 0,
            "translation" : [
                -0.01260519027709961,
                -1.4973068237304688,
                1.4245309829711914
            ]
        },
        {
            "children" : [
                3
            ],
            "name" : "Armature.003_Neck",
            "rotation" : [
                0.009230244904756546,
                -0.004991432651877403,
                -0.010937157087028027,
                0.9998851418495178
            ],
            "translation" : [
                0.9624632596969604,
                -0.1361045241355896,
                -1.9906895160675049
            ]
        },
        {
            "name" : "Armature.003_Head",
            "rotation" : [
                0.05329929664731026,
                0.4530751407146454,
                0.11484339088201523,
                0.8824359178543091
            ],
            "scale" : [
                1.0,
                0.9999999403953552,
                1.0
            ],
            "translation" : [
                8.521601557731628e-08,
                0.8647732138633728,
                1.0873191058635712e-07
            ]
        },
        {
            "name" : "Armature.003_All",
            "rotation" : [
                -0.05460464209318161,
                0.061702508479356766,
                0.0847952663898468,
                0.9929859638214111
            ],
            "scale" : [
                0.9999999403953552,
                0.9999999403953552,
                0.9999998807907104
            ],
            "translation" : [
                1.5703988075256348,
                -2.1494455337524414,
                -1.6616178750991821
            ]
        }
    ],
    "samplers" : [
        {}
    ],
    "scene" : 0,
    "scenes" : [
        {
            "name" : "Scene",
            "nodes" : [
                0
            ]
        }
    ],
    "skins" : [
        {
            "inverseBindMatrices" : 6,
            "joints" : [
                2,
                3,
                4
            ],
            "skeleton" : 0
        }
    ],
    "textures" : [
        {
            "sampler" : 0,
            "source" : 0
        }
    ]
}
