{
    "accessors" : [
        {
            "bufferView" : 0,
            "componentType" : 5123,
            "count" : 24798,
            "max" : [
                6053
            ],
            "min" : [
                0
            ],
            "type" : "SCALAR"
        },
        {
            "bufferView" : 1,
            "componentType" : 5126,
            "count" : 6054,
            "max" : [
                699.6456298828125,
                287.8106689453125,
                175.595947265625
            ],
            "min" : [
                -520.7662353515625,
                -389.2899169921875,
                -162.835205078125
            ],
            "type" : "VEC3"
        },
        {
            "bufferView" : 2,
            "componentType" : 5126,
            "count" : 6054,
            "max" : [
                0.99993896484375,
                0.99981689453125,
                0.999664306640625
            ],
            "min" : [
                -0.9989623427391052,
                -0.9991455078125,
                -0.999908447265625
            ],
            "type" : "VEC3"
        },
        {
            "bufferView" : 3,
            "componentType" : 5126,
            "count" : 6054,
            "max" : [
                0.9998199939727783,
                0.9883467555046082,
                0.9999730587005615,
                1.0
            ],
            "min" : [
                -0.9991565346717834,
                -0.9928532242774963,
                -0.9999547004699707,
                -1.0
            ],
            "type" : "VEC4"
        },
        {
            "bufferView" : 4,
            "componentType" : 5126,
            "count" : 6054,
            "max" : [
                0.9364782571792603,
                0.9332744851708412
            ],
            "min" : [
                0.06348197162151337,
                0.10099512338638306
            ],
            "type" : "VEC2"
        },
        {
            "bufferView" : 5,
            "componentType" : 5123,
            "count" : 6054,
            "max" : [
                2,
                2,
                2,
                0
            ],
            "min" : [
                0,
                0,
                0,
                0
            ],
            "type" : "VEC4"
        },
        {
            "bufferView" : 6,
            "componentType" : 5126,
            "count" : 6054,
            "max" : [
                1.0,
                1.0,
                1.0,
                0.0
            ],
            "min" : [
                1.0,
                0.0,
                0.0,
                0.0
            ],
            "type" : "VEC4"
        },
        {
            "bufferView" : 7,
            "componentType" : 5126,
            "count" : 3,
            "max" : [
                0.0010898914188146591,
                -0.002584110014140606,
                0.00034035652060993016,
                0.0,
                0.0027296405751258135,
                0.001415712758898735,
                0.0001683388400124386,
                0.0,
                0.0029271722305566072,
                0.00030797335784882307,
                0.0029384458903223276,
                0.0,
                -0.005558200180530548,
                1.0061219930648804,
                0.1552600860595703,
                1.0
            ],
            "min" : [
                0.0002904908615164459,
                -0.0029123376589268446,
                -0.0011379270581528544,
                0.0,
                0.00017091684276238084,
                -0.00032462264061905444,
                -0.002923583146184683,
                0.0,
                -0.0002076796517940238,
                8.514905857737176e-06,
                0.00013693029177375138,
                0.0,
                -0.13339419662952423,
                -1.0125489234924316,
                0.008786949329078197,
                1.0
            ],
            "type" : "MAT4"
        },
        {
            "bufferView" : 8,
            "componentType" : 5126,
            "count" : 183,
            "max" : [
                7.583333333333333
            ],
            "min" : [
                0.0
            ],
            "type" : "SCALAR"
        },
        {
            "bufferView" : 9,
            "componentType" : 5126,
            "count" : 183,
            "max" : [
                -0.10549383610486984,
                0.01522523071616888,
                -0.04283060505986214
            ],
            "min" : [
                -0.10549383610486984,
                0.01522523071616888,
                -0.04283060505986214
            ],
            "type" : "VEC3"
        },
        {
            "bufferView" : 10,
            "componentType" : 5126,
            "count" : 183,
            "max" : [
                7.583333333333333
            ],
            "min" : [
                0.0
            ],
            "type" : "SCALAR"
        },
        {
            "bufferView" : 11,
            "componentType" : 5126,
            "count" : 183,
            "max" : [
                0.1700846403837204,
                0.11515603214502335,
                0.2162242978811264,
                0.996514618396759
            ],
            "min" : [
                -0.045693643391132355,
                -0.09065838158130646,
                -0.07490327954292297,
                0.9710510969161987
            ],
            "type" : "VEC4"
        },
        {
            "bufferView" : 12,
            "componentType" : 5126,
            "count" : 183,
            "max" : [
                7.583333333333333
            ],
            "min" : [
                0.0
            ],
            "type" : "SCALAR"
        },
        {
            "bufferView" : 13,
            "componentType" : 5126,
            "count" : 183,
            "max" : [
                1.1859810911118984e-09,
                0.864773154258728,
                9.589712135493755e-09
            ],
            "min" : [
                1.1859810911118984e-09,
                0.864773154258728,
                9.589712135493755e-09
            ],
            "type" : "VEC3"
        },
        {
            "bufferView" : 14,
            "componentType" : 5126,
            "count" : 183,
            "max" : [
                7.583333333333333
            ],
            "min" : [
                0.0
            ],
            "type" : "SCALAR"
        },
        {
            "bufferView" : 15,
            "componentType" : 5126,
            "count" : 183,
            "max" : [
                0.09939725697040558,
                0.6004627346992493,
                0.10174151510000229,
                0.9436398148536682
            ],
            "min" : [
                -0.016285041347146034,
                0.3155178427696228,
                0.046327147632837296,
                0.792794406414032
            ],
            "type" : "VEC4"
        }
    ],
    "animations" : [
        {
            "channels" : [
                {
                    "sampler" : 0,
                    "target" : {
                        "node" : 2,
                        "path" : "translation"
                    }
                },
                {
                    "sampler" : 1,
                    "target" : {
                        "node" : 2,
                        "path" : "rotation"
                    }
                },
                {
                    "sampler" : 2,
                    "target" : {
                        "node" : 3,
                        "path" : "translation"
                    }
                },
                {
                    "sampler" : 3,
                    "target" : {
                        "node" : 3,
                        "path" : "rotation"
                    }
                }
            ],
            "name" : "ArmatureAction.004",
            "samplers" : [
                {
                    "input" : 8,
                    "interpolation" : "LINEAR",
                    "output" : 9
                },
                {
                    "input" : 10,
                    "interpolation" : "LINEAR",
                    "output" : 11
                },
                {
                    "input" : 12,
                    "interpolation" : "LINEAR",
                    "output" : 13
                },
                {
                    "input" : 14,
                    "interpolation" : "LINEAR",
                    "output" : 15
                }
            ]
        }
    ],
    "asset" : {
        "generator" : "Khronos Blender glTF 2.0 exporter",
        "version" : "2.0"
    },
    "bufferViews" : [
        {
            "buffer" : 0,
            "byteLength" : 49596,
            "byteOffset" : 0,
            "target" : 34963
        },
        {
            "buffer" : 0,
            "byteLength" : 72648,
            "byteOffset" : 49596,
            "target" : 34962
        },
        {
            "buffer" : 0,
            "byteLength" : 72648,
            "byteOffset" : 122244,
            "target" : 34962
        },
        {
            "buffer" : 0,
            "byteLength" : 96864,
            "byteOffset" : 194892,
            "target" : 34962
        },
        {
            "buffer" : 0,
            "byteLength" : 48432,
            "byteOffset" : 291756,
            "target" : 34962
        },
        {
            "buffer" : 0,
            "byteLength" : 48432,
            "byteOffset" : 340188,
            "target" : 34962
        },
        {
            "buffer" : 0,
            "byteLength" : 96864,
            "byteOffset" : 388620,
            "target" : 34962
        },
        {
            "buffer" : 0,
            "byteLength" : 192,
            "byteOffset" : 485484
        },
        {
            "buffer" : 0,
            "byteLength" : 732,
            "byteOffset" : 485676
        },
        {
            "buffer" : 0,
            "byteLength" : 2196,
            "byteOffset" : 486408
        },
        {
            "buffer" : 0,
            "byteLength" : 732,
            "byteOffset" : 488604
        },
        {
            "buffer" : 0,
            "byteLength" : 2928,
            "byteOffset" : 489336
        },
        {
            "buffer" : 0,
            "byteLength" : 732,
            "byteOffset" : 492264
        },
        {
            "buffer" : 0,
            "byteLength" : 2196,
            "byteOffset" : 492996
        },
        {
            "buffer" : 0,
            "byteLength" : 732,
            "byteOffset" : 495192
        },
        {
            "buffer" : 0,
            "byteLength" : 2928,
            "byteOffset" : 495924
        }
    ],
    "buffers" : [
        {
            "byteLength" : 498852,
            "uri" : "cow3.bin"
        }
    ],
    "images" : [
        {
            "name" : "1.jpg",
            "uri" : "1.jpg.jpg"
        }
    ],
    "materials" : [
        {
            "name" : "COWSKIN.003",
            "pbrMetallicRoughness" : {
                "baseColorTexture" : {
                    "index" : 0
                },
                "metallicFactor" : 0.0,
                "roughnessFactor" : 0.0
            }
        }
    ],
    "meshes" : [
        {
            "name" : "COWBODY.002",
            "primitives" : [
                {
                    "attributes" : {
                        "JOINTS_0" : 5,
                        "NORMAL" : 2,
                        "POSITION" : 1,
                        "TANGENT" : 3,
                        "TEXCOORD_0" : 4,
                        "WEIGHTS_0" : 6
                    },
                    "indices" : 0,
                    "material" : 0
                }
            ]
        }
    ],
    "nodes" : [
        {
            "children" : [
                1,
                2,
                4
            ],
            "name" : "Armature.004",
            "rotation" : [
                0.41573694348335266,
                0.7645193338394165,
                -0.22822828590869904,
                0.4365602731704712
            ],
            "scale" : [
                0.8078271746635437,
                0.8078270554542542,
                0.8078271150588989
            ],
            "translation" : [
                -3.7250070571899414,
                0.8980485200881958,
                -0.5948242545127869
            ]
        },
        {
            "mesh" : 0,
            "name" : "COWBODY.003",
            "rotation" : [
                -0.2444046288728714,
                0.38011106848716736,
                -0.4559158980846405,
                0.7667611837387085
            ],
            "scale" : [
                0.0029465132392942905,
                0.002946512307971716,
                0.0029465120751410723
            ],
            "skin" : 0,
            "translation" : [
                -0.10950064659118652,
                -0.14103150367736816,
                -0.029495716094970703
            ]
        },
        {
            "children" : [
                3
            ],
            "name" : "Armature.004_Neck",
            "rotation" : [
                0.03389604017138481,
                0.004292199853807688,
                0.10763432830572128,
                0.9936033487319946
            ],
            "scale" : [
                0.9999999403953552,
                1.0,
                1.0000001192092896
            ],
            "translation" : [
                -0.10549383610486984,
                0.01522523071616888,
                -0.04283060505986214
            ]
        },
        {
            "name" : "Armature.004_Head",
            "rotation" : [
                0.07980489730834961,
                0.4693794548511505,
                0.046128835529088974,
                0.8781720995903015
            ],
            "scale" : [
                0.9999999403953552,
                0.9999999403953552,
                0.9999999403953552
            ],
            "translation" : [
                1.1859810911118984e-09,
                0.864773154258728,
                9.589712135493755e-09
            ]
        },
        {
            "name" : "Armature.004_All",
            "rotation" : [
                0.2877718210220337,
                -0.25757548213005066,
                0.06301464885473251,
                0.9202561974525452
            ],
            "scale" : [
                1.0,
                1.0000001192092896,
                1.0000001192092896
            ],
            "translation" : [
                0.23996645212173462,
                -0.8858388066291809,
                -0.6293740272521973
            ]
        }
    ],
    "samplers" : [
        {}
    ],
    "scene" : 0,
    "scenes" : [
        {
            "name" : "Scene",
            "nodes" : [
                0
            ]
        }
    ],
    "skins" : [
        {
            "inverseBindMatrices" : 7,
            "joints" : [
                2,
                3,
                4
            ],
            "skeleton" : 0
        }
    ],
    "textures" : [
        {
            "sampler" : 0,
            "source" : 0
        }
    ]
}
